<svg xmlns="http://www.w3.org/2000/svg" version="1.1" width="3300" height="2000"><g id="Notes"><style>
    text {
      font-family: monospace;
      text-anchor: middle;
    }
    text.emphasis {
      font-weight:bold;
    }
    text.lanchor {
      text-anchor: start;
    }
  </style><rect height="2200" id="artboard" fill="white" width="3300" x="0" y="0"/><line id="" style="fill:none;stroke:black;stroke-width:0.5;" x1="263" x2="3036" y1="292" y2="292"/><text class="lanchor emphasis" transform="matrix(1 0 0 1 263 322)">Weight/Scale Variations</text><text transform="matrix(1 0 0 1 559.711 322)">Ultralight</text><text transform="matrix(1 0 0 1 856.422 322)">Thin</text><text transform="matrix(1 0 0 1 1153.13 322)">Light</text><text transform="matrix(1 0 0 1 1449.84 322)">Regular</text><text transform="matrix(1 0 0 1 1746.56 322)">Medium</text><text transform="matrix(1 0 0 1 2043.27 322)">Semibold</text><text transform="matrix(1 0 0 1 2339.98 322)">Bold</text><text transform="matrix(1 0 0 1 2636.69 322)">Heavy</text><text transform="matrix(1 0 0 1 2933.4 322)">Black</text><text id="template-version" style="text-anchor: end;" transform="matrix(1 0 0 1 3036 1933)">Template v.1.0</text><text class="lanchor" transform="matrix(1 0 0 1 263 726)">Small</text><text class="lanchor" transform="matrix(1 0 0 1 263 1156)">Medium</text><text class="lanchor" transform="matrix(1 0 0 1 263 1586)">Large</text></g><g id="Guides"><g id="H-reference" style="fill:#27AAE1;stroke:none;" transform="matrix(1 0 0 1 339 696)"><path d="M 54.9316 0 L 57.666 0 L 30.5664 -70.459 L 28.0762 -70.459 L 0.976562 0 L 3.66211 0 L 12.9395 -24.4629 L 45.7031 -24.4629 Z M 29.1992 -67.0898 L 29.4434 -67.0898 L 44.8242 -26.709 L 13.8184 -26.709 Z"/></g><line id="Baseline-S" style="fill:none;stroke:#27AAE1;opacity:1;stroke-width:0.577;" x1="263" x2="3036" y1="696" y2="696"/><line id="Capline-S" style="fill:none;stroke:#27AAE1;opacity:1;stroke-width:0.577;" x1="263" x2="3036" y1="625.541" y2="625.541"/><g id="H-reference" style="fill:#27AAE1;stroke:none;" transform="matrix(1 0 0 1 339 1126)"><path d="M 54.9316 0 L 57.666 0 L 30.5664 -70.459 L 28.0762 -70.459 L 0.976562 0 L 3.66211 0 L 12.9395 -24.4629 L 45.7031 -24.4629 Z M 29.1992 -67.0898 L 29.4434 -67.0898 L 44.8242 -26.709 L 13.8184 -26.709 Z"/></g><line id="Baseline-M" style="fill:none;stroke:#27AAE1;opacity:1;stroke-width:0.577;" x1="263" x2="3036" y1="1126" y2="1126"/><line id="Capline-M" style="fill:none;stroke:#27AAE1;opacity:1;stroke-width:0.577;" x1="263" x2="3036" y1="1055.54" y2="1055.54"/><g id="H-reference" style="fill:#27AAE1;stroke:none;" transform="matrix(1 0 0 1 339 1556)"><path d="M 54.9316 0 L 57.666 0 L 30.5664 -70.459 L 28.0762 -70.459 L 0.976562 0 L 3.66211 0 L 12.9395 -24.4629 L 45.7031 -24.4629 Z M 29.1992 -67.0898 L 29.4434 -67.0898 L 44.8242 -26.709 L 13.8184 -26.709 Z"/></g><line id="Baseline-L" style="fill:none;stroke:#27AAE1;opacity:1;stroke-width:0.577;" x1="263" x2="3036" y1="1556" y2="1556"/><line id="Capline-L" style="fill:none;stroke:#27AAE1;opacity:1;stroke-width:0.577;" x1="263" x2="3036" y1="1485.54" y2="1485.54"/><rect height="119.336" id="left-margin" style="fill:darkred;stroke:none;opacity:0.4;" width="12.4512" x="1394.06" y="1030.79"/><rect height="119.336" id="right-margin" style="fill:darkgreen;stroke:none;opacity:0.4;" width="12.4512" x="1502.5112" y="1030.79"/><rect x="1406.5112" y="1045" width="96" height="96" fill="none" stroke="blue" stroke-dasharray="5"/><rect x="1394.06" y="1030.79" width="120.9024" height="119.336" fill="none" stroke="blue"/></g><g id="Symbols"><g id="Bold-L" transform="matrix(1 0 0 1 2266 1556)"><path d="M77.23875 28.141250000000014  67.88625 19.756250000000016 Q50.34741 3.611738750000015 38.96058 -8.06921124999998 Q27.57375 -19.749999999999986 20.80125 -29.02187499999998 Q14.02875 -38.29374999999999 11.368125000000001 -45.953124999999986 Q8.7075 -53.61249999999998 8.7075 -61.52955249999998 Q8.7075 -77.85159999999999 19.61751375 -88.79079999999999 Q30.5275275 -99.72999999999999 46.60125 -99.72999999999999 Q55.677690000000005 -99.72999999999999 63.394470000000005 -95.85999999999999 Q71.11125 -91.98999999999998 77.23875 -84.41124999999998 Q84.33375000000001 -92.47375 91.7567325 -96.10187499999998 Q99.179715 -99.72999999999999 107.87625 -99.72999999999999 Q124.2240975 -99.72999999999999 135.15829875 -88.78628499999999 Q146.0925 -77.84257 146.0925 -61.51374999999999 Q146.0925 -53.61733749999998 143.431875 -46.03616874999999 Q140.77125 -38.454999999999984 133.99875 -29.18312499999999 Q127.22625000000001 -19.91124999999999 115.78024125000002 -8.131614999999982 Q104.3342325 3.647858750000019 86.7525 19.756250000000016 L77.23875 28.141250000000014 Z M77.158125 8.146250000000016 Q93.401805 -6.8491937499999835 103.78340250000001 -17.330927499999987 Q114.165 -27.812499999999986 120.211875 -35.63312499999999 Q126.25875 -43.453749999999985 128.596875 -49.54625874999999 Q130.935 -55.638767499999986 130.935 -61.486498749999996 Q130.935 -71.51124999999999 124.50741375000001 -78.04187499999999 Q118.07982750000001 -84.57249999999999 107.99089875 -84.57249999999999 Q100.08803625 -84.57249999999999 93.2589375 -79.4125 Q86.43 -74.25249999999998 82.07625 -65.22249999999998 H72.40125 Q68.24922375 -74.25249999999998 61.2862875 -79.4125 Q54.32335125 -84.57249999999999 46.59141375000001 -84.57249999999999 Q36.72097875 -84.57249999999999 30.373695 -78.14555874999999 Q24.02625 -71.71861749999998 24.02625 -61.462794999999986 Q24.02625 -55.372221249999996 26.435325 -49.15232499999999 Q28.8444 -42.93226749999998 34.90095 -35.04988374999998 Q40.9575 -27.16749999999999 51.196875 -16.766874999999985 Q61.43625 -6.366249999999987 77.158125 8.146250000000016 Z"/></g><g id="Semibold-L" transform="matrix(1 0 0 1 1970.27 1556)"><path d="M77.30889375 25.757652500000017  69.14819250000001 18.424325000000017 Q51.81962250000001 2.490083750000018 40.5379275 -9.050578749999985 Q29.2562325 -20.59124124999998 22.553876250000002 -29.72298999999998 Q15.85152 -38.85457749999999 13.190895000000001 -46.338673749999984 Q10.53027 -53.82276999999998 10.53027 -61.52261874999998 Q10.53027 -77.06889249999999 20.9383125 -87.48806124999999 Q31.34651625 -97.90723 46.67139375 -97.90723 Q55.79766 -97.90723 63.55959 -93.82695999999999 Q71.32151999999999 -89.74668999999997 77.30889375 -81.88752625 Q84.26360625000001 -90.23043999999999 91.75431375000001 -94.068835 Q99.24502125 -97.90723 107.94639375 -97.90723 Q123.4262325 -97.90723 133.84798125 -87.48548124999999 Q144.26973 -77.06373249999999 144.26973 -61.51374999999999 Q144.26973 -53.82551124999999 141.609105 -46.38559749999999 Q138.94848000000002 -38.945683749999986 132.24612375 -29.81409624999999 Q125.54376750000002 -20.682347499999985 114.22869375 -9.085892499999986 Q102.91362000000001 2.510562500000013 85.56070125000001 18.424325000000017 L77.30889375 25.757652500000017 Z M77.26326 8.91734750000002 Q93.5420925 -6.078096249999987 103.9936725 -16.66480374999999 Q114.44541375000001 -27.251672499999984 120.5624325 -35.17743249999998 Q126.67945125000001 -43.10319249999999 129.08755875 -49.29051624999998 Q131.4958275 -55.477839999999986 131.4958275 -61.48827249999998 Q131.4958275 -71.79166375 124.91827875 -78.46257625 Q118.34073 -85.13332749999998 108.02685749999999 -85.13332749999998 Q99.94774875 -85.13332749999998 93.01367624999999 -80.00831875 Q86.0794425 -74.88347124999999 81.72569250000001 -65.78332749999998 H72.82195125 Q68.6521875 -74.81332749999999 61.64232750000001 -79.97332749999998 Q54.6324675 -85.13332749999998 46.65010875 -85.13332749999998 Q36.459753750000004 -85.13332749999998 29.927516250000004 -78.52110999999998 Q23.39527875 -71.9088925 23.39527875 -61.462794999999986 Q23.39527875 -55.30820499999999 25.843698749999998 -49.023324999999986 Q28.291957500000002 -42.738444999999984 34.41445875 -34.74270249999999 Q40.53679875 -26.746798749999982 50.9514525 -16.24103874999998 Q61.36610625 -5.735278749999985 77.26326 8.91734750000002 Z"/></g><g id="Medium-L" transform="matrix(1 0 0 1 1674.31 1556)"><path d="M77.36146125 23.969873750000016  70.09473000000001 17.425220000000017 Q52.9238625 1.648681250000017 41.721018750000006 -9.78684624999999 Q30.51833625 -21.222212499999983 23.8685475 -30.24882624999998 Q17.2185975 -39.275278749999984 14.5579725 -46.62795624999998 Q11.8973475 -53.980633749999996 11.8973475 -61.51745874999999 Q11.8973475 -76.48178125 21.9290325 -86.51088624999997 Q31.960717499999998 -96.54015249999998 46.72396125 -96.54015249999998 Q55.88779875 -96.54015249999998 63.683591250000006 -92.30201874999997 Q71.47938375000001 -88.063885 77.36146125 -79.99445125 Q84.21103875000001 -88.54763499999999 91.75254000000001 -92.54389374999997 Q99.29404125 -96.54015249999998 107.99896125 -96.54015249999998 Q122.8276725 -96.54015249999998 132.8651625 -86.50975749999998 Q142.9026525 -76.47952375 142.9026525 -61.51374999999999 Q142.9026525 -53.98176249999999 140.2420275 -46.647789999999986 Q137.5814025 -39.313817499999985 130.9314525 -30.287364999999994 Q124.28166375 -21.26091249999999 113.06479125000001 -9.801681249999987 Q101.84791875 1.6573887500000097 84.66673125000001 17.425220000000017 L77.36146125 23.969873750000016 Z M77.34211125 9.495912500000017 Q93.64722750000001 -5.4996924999999806 104.15153624999999 -16.16525124999999 Q114.65568375000001 -26.83097124999999 120.82527 -34.83558249999999 Q126.99485625000001 -42.84035499999999 129.4556925 -49.098789999999994 Q131.91652875 -55.357225 131.91652875 -61.48956249999999 Q131.91652875 -72.00193374999999 125.2264275 -78.77798125 Q118.5364875 -85.55402874999999 108.05394749999999 -85.55402874999999 Q99.84261375 -85.55402874999999 92.82952875000001 -80.45530374999998 Q85.81660500000001 -75.35673999999997 81.462855 -66.20402874999999 H73.13735625 Q68.95453125 -75.23402874999998 61.909518750000004 -80.39402874999999 Q54.864506250000005 -85.55402874999999 46.693968749999996 -85.55402874999999 Q36.26367375 -85.55402874999999 29.5929225 -78.80281375 Q22.92201 -72.05159874999998 22.92201 -61.462794999999986 Q22.92201 -55.260152499999975 25.399777500000003 -48.926575 Q27.877544999999998 -42.592997499999996 34.04955 -34.51211499999998 Q40.221393750000004 -26.431393749999984 50.76746625 -15.846782499999982 Q61.31353875 -5.262009999999982 77.34211125 9.495912500000017 Z"/></g><g id="Regular-L" transform="matrix(1 0 0 1 1378.56 1556)"><path d="M77.4 22.658750000000015  70.78875000000001 16.692500000000017 Q53.73366000000001 1.0317387500000166 42.588705 -10.326711249999981 Q31.44375 -21.684999999999988 24.8325 -30.63437499999999 Q18.22125 -39.58374999999998 15.560625 -46.83999999999999 Q12.9 -54.09624999999998 12.9 -61.51374999999999 Q12.9 -76.05124374999998 22.655625 -85.79429124999999 Q32.41125 -95.5375 46.7625 -95.5375 Q55.95375 -95.5375 63.774375 -91.18374999999997 Q71.595 -86.82999999999998 77.4 -78.60624999999999 Q84.1725 -87.31375 91.75125 -91.425625 Q99.33 -95.5375 108.03750000000001 -95.5375 Q122.38875 -95.5375 132.144375 -85.79429124999999 Q141.9 -76.05124374999998 141.9 -61.51374999999999 Q141.9 -54.09624999999998 139.239375 -46.83999999999999 Q136.57875 -39.58374999999998 129.9675 -30.63437499999999 Q123.35625 -21.684999999999988 112.211295 -10.326711249999981 Q101.06634000000001 1.0317387500000166 84.01125 16.692500000000017 L77.4 22.658750000000015 Z M77.4 9.920000000000016 Q93.724305 -5.075443749999984 104.26715250000001 -15.79905249999998 Q114.81 -26.52249999999998 121.018125 -34.58499999999998 Q127.22625000000001 -42.64749999999998 129.725625 -48.95801874999998 Q132.225 -55.268698749999984 132.225 -61.49036874999999 Q132.225 -72.15624999999999 125.4525 -79.00937499999999 Q118.68 -85.86249999999998 108.07378125000001 -85.86249999999998 Q99.76553625000001 -85.86249999999998 92.6945625 -80.78312499999998 Q85.62375 -75.70374999999999 81.27 -66.51249999999999 H73.36875 Q69.17625 -75.54249999999999 62.1054375 -80.70249999999999 Q55.03446375 -85.86249999999998 46.72621875 -85.86249999999998 Q36.120000000000005 -85.86249999999998 29.3475 -79.00937499999999 Q22.575 -72.15624999999999 22.575 -61.462794999999986 Q22.575 -55.22499999999998 25.074375 -48.85562499999999 Q27.57375 -42.486249999999984 33.781875 -34.343124999999986 Q39.99 -26.19999999999999 50.6325 -15.557499999999983 Q61.275 -4.914999999999985 77.4 9.920000000000016 Z"/></g><g id="Light-L" transform="matrix(1 0 0 1 1082.77 1556)"><path d="M77.4 18.379175000000018  72.27724875 13.715341250000016 Q55.656405 -1.5111737499999904 44.82153375000001 -12.497458749999993 Q33.9866625 -23.483743749999988 27.59261625 -31.99887249999999 Q21.19840875 -40.51416249999998 18.661785000000002 -47.37776874999999 Q16.12516125 -54.24153624999998 16.12516125 -61.14158499999999 Q16.12516125 -74.41149249999998 25.07453625 -83.36183499999999 Q34.023911250000005 -92.31233874999998 47.19674625 -92.31233874999998 Q56.20191375 -92.31233874999998 63.898376250000005 -87.77250624999999 Q71.595 -83.23267374999999 77.4 -74.57467749999999 Q83.92433625000001 -83.59226124999999 91.40117624999999 -87.95229999999998 Q98.87801625 -92.31233874999998 107.60325375000001 -92.31233874999998 Q120.77608875000001 -92.31233874999998 129.72546375000002 -83.36183499999999 Q138.67483875000002 -74.41149249999998 138.67483875000002 -61.14158499999999 Q138.67483875000002 -54.24153624999998 136.138215 -47.37776874999999 Q133.60159125 -40.51416249999998 127.21447875000001 -32.01225624999999 Q120.8275275 -23.51034999999999 109.98556125 -12.510842499999981 Q99.143595 -1.5111737499999904 82.52275125 13.715341250000016 L77.4 18.379175000000018 Z M77.4 8.679503750000016 Q93.47968875000001 -6.040202499999985 103.86451125 -16.55305749999998 Q114.24917250000001 -27.066073749999987 120.36554625 -34.94974749999999 Q126.48192 -42.83358249999999 128.919375 -48.967693749999995 Q131.35666875 -55.101966249999975 131.35666875 -61.11836499999998 Q131.35666875 -71.47400124999999 124.64625000000001 -78.234085 Q117.93567 -84.99416874999999 107.63953500000001 -84.99416874999999 Q99.39337125 -84.99416874999999 92.47752000000001 -80.06991624999999 Q85.56166875000001 -75.14550249999999 80.40166875 -65.52016749999999 H74.2991625 Q69.17625 -75.04633374999999 62.261688750000005 -80.02025124999999 Q55.3471275 -84.99416874999999 47.160465 -84.99416874999999 Q36.92625 -84.99416874999999 30.184871250000004 -78.234085 Q23.44333125 -71.47400124999999 23.44333125 -61.070151249999995 Q23.44333125 -55.063266249999984 25.890622500000003 -48.896259999999984 Q28.337913750000002 -42.729253749999984 34.41204 -34.805751249999986 Q40.486166250000004 -26.882248749999988 50.973705 -16.425831249999987 Q61.4610825 -5.969413749999987 77.4 8.679503750000016 Z"/></g><g id="Thin-L" transform="matrix(1 0 0 1 787.282 1556)"><path d="M77.4 14.100083750000014  73.76558625 10.738666250000016 Q57.578827499999996 -4.0537637499999875 47.05404 -14.667883749999987 Q36.529252500000005 -25.282164999999978 30.35224875 -33.363208749999984 Q24.175083750000002 -41.44425249999999 21.76246125 -47.915537499999985 Q19.35 -54.386822499999994 19.35 -60.76958124999999 Q19.35 -72.77206374999999 27.493125 -80.92986249999998 Q35.636250000000004 -89.08749999999998 47.63083125 -89.08749999999998 Q56.44991625 -89.08749999999998 64.0223775 -84.36174624999998 Q71.595 -79.63583124999998 77.4 -70.54374999999999 Q83.67633375 -79.87141749999999 91.05126375 -84.47945874999999 Q98.4260325 -89.08749999999998 107.16916875000001 -89.08749999999998 Q119.16375000000001 -89.08749999999998 127.306875 -80.92986249999998 Q135.45000000000002 -72.77206374999999 135.45000000000002 -60.76958124999999 Q135.45000000000002 -54.386822499999994 133.03753875 -47.915537499999985 Q130.62491625 -41.44425249999999 124.46194125 -33.38997624999999 Q118.29912750000001 -25.335538749999984 107.76015 -14.694651249999986 Q97.22117250000001 -4.0537637499999875 81.03441375 10.738666250000016 L77.4 14.100083750000014 Z M77.4 7.4391687500000145 Q93.2350725 -7.004638749999984 103.46187 -17.307062499999986 Q113.68850625 -27.60948624999999 119.71312875000001 -35.31449499999998 Q125.73775125 -43.01966499999999 128.113125 -48.97736874999998 Q130.48849875 -54.93523374999998 130.48849875 -60.74619999999999 Q130.48849875 -70.79191374999999 123.84 -77.45895624999999 Q117.19150125 -84.12599875 107.20545000000001 -84.12599875 Q99.02120625 -84.12599875 92.26047750000001 -79.35670749999998 Q85.49974875 -74.58741624999999 79.53349875 -64.52783499999998 H75.2292525 Q69.17625 -74.55016749999999 62.41794000000001 -79.33816374999998 Q55.65963 -84.12599875 47.594550000000005 -84.12599875 Q37.7325 -84.12599875 31.02208125 -77.45895624999999 Q24.311501250000003 -70.79191374999999 24.311501250000003 -60.677507499999976 Q24.311501250000003 -54.90169374999999 26.70670875 -48.93689499999999 Q29.101916250000002 -42.972257499999984 35.04204375 -35.268377499999986 Q40.9823325 -27.564336249999982 51.31474875 -17.294001249999987 Q61.647165 -7.023666249999984 77.4 7.4391687500000145 Z"/></g><g id="Ultralight-L" transform="matrix(1 0 0 1 491.205 1556)"><path d="M77.4 11.532500000000017  74.65875 8.952500000000015 Q58.73241000000001 -5.579511249999982 48.393705 -15.970461249999985 Q38.055 -26.361249999999984 32.008125 -34.18187499999999 Q25.96125 -42.00249999999998 23.623125 -48.238359999999986 Q21.285 -54.47405874999998 21.285 -60.546249999999986 Q21.285 -71.78827749999998 28.944375 -79.47038875 Q36.60375 -87.15249999999997 47.89125 -87.15249999999997 Q56.59875 -87.15249999999997 64.096875 -82.31499999999998 Q71.595 -77.47749999999999 77.4 -68.12499999999999 Q83.5275 -77.63874999999999 90.841155 -82.39562499999998 Q98.15481 -87.15249999999997 106.90875 -87.15249999999997 Q118.19625 -87.15249999999997 125.855625 -79.47038875 Q133.51500000000001 -71.78827749999998 133.51500000000001 -60.546249999999986 Q133.51500000000001 -54.47405874999998 131.176875 -48.238359999999986 Q128.83875 -42.00249999999998 122.8102575 -34.216543749999985 Q116.78192625000001 -26.430587499999987 106.42467750000002 -16.005129999999987 Q96.06759000000001 -5.579511249999982 80.14125 8.952500000000015 L77.4 11.532500000000017 Z M77.4 6.6950000000000145 Q93.08817375000001 -7.583526249999984 103.22015625 -17.759529999999984 Q113.35213875 -27.935533749999976 119.32161375000001 -35.53347249999999 Q125.29125 -43.13124999999998 127.62937500000001 -48.98317374999999 Q129.9675 -54.83509749999999 129.9675 -60.52286874999999 Q129.9675 -70.3825 123.35625 -76.99374999999999 Q116.745 -83.60499999999999 106.94503125 -83.60499999999999 Q98.79803625000001 -83.60499999999999 92.1301875 -78.92875 Q85.4625 -74.25249999999998 79.0125 -63.93249999999999 H75.78750000000001 Q69.17625 -74.25249999999998 62.51162625 -78.92875 Q55.84716375 -83.60499999999999 47.85496875 -83.60499999999999 Q38.21625 -83.60499999999999 31.524375 -76.99374999999999 Q24.8325 -70.3825 24.8325 -60.44192124999998 Q24.8325 -54.80462125 27.196425 -48.961404999999985 Q29.56035 -43.11802749999998 35.420175 -35.54588874999999 Q41.28 -27.97374999999998 51.519375000000004 -17.814999999999984 Q61.75875 -7.656249999999986 77.4 6.6950000000000145 Z"/></g><g id="Bold-M" transform="matrix(1 0 0 1 2281.8 1126)"><path d="M59.875 15.52000000000001  49.75 6.39500000000001 Q36.625 -5.35499999999999 28.0625 -13.97999999999999 Q19.5 -22.60499999999999 14.5625 -29.47999999999999 Q9.625 -36.35499999999999 7.625 -42.22999999999999 Q5.625 -48.10499999999999 5.625 -54.47999999999999 Q5.625 -68.099375 14.717 -77.22712499999999 Q23.809125 -86.35499999999999 37.375 -86.35499999999999 Q43.7415 -86.35499999999999 49.49575 -84.10499999999999 Q55.25 -81.85499999999999 59.875 -77.47999999999999 Q64.5 -81.85499999999999 70.25425 -84.10499999999999 Q76.0085 -86.35499999999999 82.375 -86.35499999999999 Q96.04775 -86.35499999999999 105.211375 -77.22712499999999 Q114.375 -68.099375 114.375 -54.47999999999999 Q114.375 -48.22999999999999 112.4375 -42.35499999999999 Q110.5 -36.47999999999999 105.5 -29.66749999999999 Q100.5 -22.85499999999999 91.875 -14.16749999999999 Q83.25 -5.47999999999999 70.0 6.39500000000001 L59.875 15.52000000000001 Z M59.875 -5.60499999999999 Q71.625 -16.35499999999999 79.1875 -23.72999999999999 Q86.75 -31.10499999999999 91.0625 -36.60499999999999 Q95.375 -42.10499999999999 97.0 -46.24849999999999 Q98.625 -50.391874999999985 98.625 -54.47699999999999 Q98.625 -61.47999999999999 93.999375 -66.04249999999999 Q89.373625 -70.60499999999999 82.435125 -70.60499999999999 Q77.0 -70.60499999999999 72.25 -67.29249999999999 Q67.5 -63.97999999999999 65.625 -58.85499999999999 H54.25 Q52.43425 -63.97999999999999 47.592125 -67.29249999999999 Q42.75 -70.60499999999999 37.409125 -70.60499999999999 Q30.590875 -70.60499999999999 26.0455 -66.04249999999999 Q21.5 -61.47999999999999 21.5 -54.47999999999999 Q21.5 -50.26049999999999 23.18 -45.98062499999999 Q24.86 -41.700749999999985 29.18 -36.21537499999999 Q33.5 -30.72999999999999 40.9375 -23.41749999999999 Q48.375 -16.10499999999999 59.875 -5.60499999999999 Z"/></g><g id="Semibold-M" transform="matrix(1 0 0 1 1985.97 1126)"><path d="M59.929375 13.02012500000001  51.05425 5.03637500000001 Q38.146625 -6.5506249999999895 29.72 -15.012499999999989 Q21.293375 -23.474499999999992 16.383 -30.213624999999993 Q11.47275 -36.95274999999999 9.499875 -42.664749999999984 Q7.527 -48.37674999999999 7.527 -54.47999999999999 Q7.527 -67.28662499999999 16.09 -75.86975 Q24.652875 -84.45299999999999 37.429375 -84.45299999999999 Q43.853875 -84.45299999999999 49.660625 -81.98562499999998 Q55.467375 -79.51825 59.929375 -74.87149999999998 Q64.39125 -79.51825 70.198125 -81.98562499999998 Q76.004875 -84.45299999999999 82.429375 -84.45299999999999 Q95.266125 -84.45299999999999 103.8695 -75.86975 Q112.473 -67.28662499999999 112.473 -54.47999999999999 Q112.473 -48.447374999999994 110.5355 -42.73537499999999 Q108.598 -37.02349999999999 103.65225 -30.319624999999988 Q98.706625 -23.61587499999999 90.244625 -15.11849999999999 Q81.78275 -6.621249999999989 68.804375 5.03637500000001 L59.929375 13.02012500000001 Z M59.929375 -4.7898749999999914 Q71.788 -15.539874999999988 79.432 -23.050749999999987 Q87.076125 -30.561499999999988 91.470125 -36.14312499999999 Q95.864125 -41.72462499999999 97.5435 -45.995874999999984 Q99.22275 -50.26712499999999 99.22275 -54.47824999999999 Q99.22275 -61.697374999999994 94.434375 -66.45012499999999 Q89.646 -71.20275 82.463375 -71.20275 Q76.837 -71.20275 71.97825 -67.89025 Q67.119625 -64.57775 65.244625 -59.452749999999995 H54.68475 Q52.84325 -64.57775 47.9325 -67.89025 Q43.02175 -71.20275 37.448625 -71.20275 Q30.334 -71.20275 25.591 -66.45012499999999 Q20.847875 -61.697374999999994 20.847875 -54.47999999999999 Q20.847875 -50.19287499999999 22.55825 -45.8445 Q24.26875 -41.49612499999999 28.667 -35.92287499999999 Q33.06525 -30.34962499999999 40.638625 -22.873999999999988 Q48.212 -15.398499999999991 59.929375 -4.7898749999999914 Z"/></g><g id="Medium-M" transform="matrix(1 0 0 1 1689.91 1126)"><path d="M59.970125 11.14500000000001  52.032625 4.017250000000011 Q39.288 -7.447374999999987 30.96325 -15.786999999999992 Q22.638625 -24.126749999999987 17.748625 -30.76399999999999 Q12.858625 -37.40124999999999 10.90625 -42.99087499999999 Q8.95375 -48.58049999999999 8.95375 -54.47999999999999 Q8.95375 -66.67699999999999 17.119875 -74.85162499999998 Q25.285875 -83.02624999999999 37.470125 -83.02624999999999 Q43.938125 -83.02624999999999 49.78425 -80.39574999999999 Q55.630375 -77.76537499999999 59.970125 -72.914875 Q64.30975 -77.76537499999999 70.155875 -80.39574999999999 Q76.002 -83.02624999999999 82.470125 -83.02624999999999 Q94.679875 -83.02624999999999 102.863 -74.85162499999998 Q111.04625 -66.67699999999999 111.04625 -54.47999999999999 Q111.04625 -48.61037499999999 109.10875 -43.02074999999999 Q107.17125 -37.43112499999999 102.266375 -30.80874999999999 Q97.361375 -24.186499999999988 89.02175 -15.83187499999999 Q80.682125 -7.477249999999991 67.907625 4.017250000000011 L59.970125 11.14500000000001 Z M59.970125 -4.178374999999988 Q71.910375 -14.928374999999988 79.6155 -22.541124999999987 Q87.320625 -30.153874999999992 91.77575 -35.79662499999999 Q96.231 -41.43924999999999 97.951125 -45.80637499999999 Q99.67125 -50.17362499999999 99.67125 -54.47924999999999 Q99.67125 -61.86037499999999 94.76075 -66.75574999999999 Q89.85025 -71.65124999999999 82.4845 -71.65124999999999 Q76.714625 -71.65124999999999 71.7745 -68.33874999999999 Q66.83425 -65.02624999999999 64.95925 -59.90124999999999 H55.010875 Q53.15 -65.02624999999999 48.18775 -68.33874999999999 Q43.2255 -71.65124999999999 37.47825 -71.65124999999999 Q30.14125 -71.65124999999999 25.25 -66.75574999999999 Q20.35875 -61.86037499999999 20.35875 -54.47999999999999 Q20.35875 -50.14212499999999 22.092 -45.742374999999996 Q23.82525 -41.342624999999984 28.282125 -35.70337499999999 Q32.739125 -30.064249999999987 40.414375 -22.466374999999992 Q48.089625 -14.868624999999987 59.970125 -4.178374999999988 Z"/></g><g id="Regular-M" transform="matrix(1 0 0 1 1394.06 1126)"><path d="M60.0 9.77000000000001  52.75 3.2700000000000102 Q40.125 -8.10499999999999 31.875 -16.35499999999999 Q23.625 -24.60499999999999 18.75 -31.16749999999999 Q13.875 -37.72999999999999 11.9375 -43.22999999999999 Q10.0 -48.72999999999999 10.0 -54.47999999999999 Q10.0 -66.22999999999999 17.875 -74.10499999999999 Q25.75 -81.97999999999999 37.5 -81.97999999999999 Q44.0 -81.97999999999999 49.875 -79.22999999999999 Q55.75 -76.47999999999999 60.0 -71.47999999999999 Q64.25 -76.47999999999999 70.125 -79.22999999999999 Q76.0 -81.97999999999999 82.5 -81.97999999999999 Q94.25 -81.97999999999999 102.125 -74.10499999999999 Q110.0 -66.22999999999999 110.0 -54.47999999999999 Q110.0 -48.72999999999999 108.0625 -43.22999999999999 Q106.125 -37.72999999999999 101.25 -31.16749999999999 Q96.375 -24.60499999999999 88.125 -16.35499999999999 Q79.875 -8.10499999999999 67.25 3.2700000000000102 L60.0 9.77000000000001 Z M60.0 -3.7299999999999898 Q72.0 -14.47999999999999 79.75 -22.16749999999999 Q87.5 -29.85499999999999 92.0 -35.54249999999999 Q96.5 -41.22999999999999 98.25 -45.66749999999999 Q100.0 -50.10499999999999 100.0 -54.47999999999999 Q100.0 -61.97999999999999 95.0 -66.97999999999999 Q90.0 -71.97999999999999 82.5 -71.97999999999999 Q76.625 -71.97999999999999 71.625 -68.66749999999999 Q66.625 -65.35499999999999 64.75 -60.22999999999999 H55.25 Q53.375 -65.35499999999999 48.375 -68.66749999999999 Q43.375 -71.97999999999999 37.5 -71.97999999999999 Q30.0 -71.97999999999999 25.0 -66.97999999999999 Q20.0 -61.97999999999999 20.0 -54.47999999999999 Q20.0 -50.10499999999999 21.75 -45.66749999999999 Q23.5 -41.22999999999999 28.0 -35.54249999999999 Q32.5 -29.85499999999999 40.25 -22.16749999999999 Q48.0 -14.47999999999999 60.0 -3.7299999999999898 Z"/></g><g id="Light-M" transform="matrix(1 0 0 1 1098.18 1126)"><path d="M60.0 6.404375000000009  54.480875 1.4430000000000085 Q42.04825 -9.835874999999987 33.918375 -17.941624999999988 Q25.788625 -26.047374999999988 21.033875 -32.36949999999999 Q16.279 -38.69162499999999 14.389625 -43.90312499999999 Q12.500125 -49.11462499999999 12.500125 -54.47999999999999 Q12.500125 -65.12412499999999 19.678 -72.30199999999999 Q26.855875 -79.47987499999999 37.5 -79.47987499999999 Q44.048125 -79.47987499999999 49.875 -76.41725 Q55.701875 -73.35475 60.0 -67.633625 Q64.298125 -73.35475 70.125 -76.41725 Q75.951875 -79.47987499999999 82.5 -79.47987499999999 Q93.144125 -79.47987499999999 100.322 -72.30199999999999 Q107.499875 -65.12412499999999 107.499875 -54.47999999999999 Q107.499875 -49.11462499999999 105.610375 -43.90312499999999 Q103.721 -38.69162499999999 98.966125 -32.36949999999999 Q94.211375 -26.047374999999988 86.105625 -17.941624999999988 Q77.999875 -9.835874999999987 65.519125 1.4430000000000085 L60.0 6.404375000000009 Z M60.0 -3.7299999999999898 Q72.0 -14.528124999999989 79.75 -22.23962499999999 Q87.5 -29.95112499999999 92.0 -35.63862499999999 Q96.5 -41.32612499999999 98.25 -45.73962499999999 Q100.0 -50.15312499999999 100.0 -54.47999999999999 Q100.0 -61.97999999999999 95.0 -66.97999999999999 Q90.0 -71.97999999999999 82.5 -71.97999999999999 Q76.576875 -71.97999999999999 71.552875 -68.61937499999999 Q66.528875 -65.25887499999999 63.596125 -59.26837499999999 H56.403875 Q53.423125 -65.30687499999999 48.423125 -68.64349999999999 Q43.423125 -71.97999999999999 37.5 -71.97999999999999 Q30.048125 -71.97999999999999 25.024 -66.97999999999999 Q20.0 -61.97999999999999 20.0 -54.47999999999999 Q20.0 -50.15312499999999 21.75 -45.73962499999999 Q23.5 -41.32612499999999 28.0 -35.63862499999999 Q32.5 -29.95112499999999 40.25 -22.26362499999999 Q48.0 -14.57612499999999 60.0 -3.7299999999999898 Z"/></g><g id="Thin-M" transform="matrix(1 0 0 1 802.565 1126)"><path d="M60.0 3.0392500000000098  56.2115 -0.3838749999999891 Q43.971125 -11.56649999999999 35.9615 -19.52799999999999 Q27.951875 -27.48962499999999 23.31725 -33.57137499999999 Q18.682625 -39.65312499999999 16.841375 -44.57612499999999 Q15.0 -49.49924999999999 15.0 -54.47999999999999 Q15.0 -64.01849999999999 21.48075 -70.49924999999999 Q27.9615 -76.97999999999999 37.5 -76.97999999999999 Q44.096125 -76.97999999999999 49.875 -73.60499999999999 Q55.653875 -70.22999999999999 60.0 -63.78774999999999 Q64.346125 -70.22999999999999 70.125 -73.60499999999999 Q75.903875 -76.97999999999999 82.5 -76.97999999999999 Q92.0385 -76.97999999999999 98.51925 -70.49924999999999 Q105.0 -64.01849999999999 105.0 -54.47999999999999 Q105.0 -49.49924999999999 103.158625 -44.57612499999999 Q101.317375 -39.65312499999999 96.68275 -33.57137499999999 Q92.048125 -27.48962499999999 84.086625 -19.52799999999999 Q76.125 -11.56649999999999 63.7885 -0.3838749999999891 L60.0 3.0392500000000098 Z M60.0 -3.7299999999999898 Q72.0 -14.57612499999999 79.75 -22.31174999999999 Q87.5 -30.04724999999999 92.0 -35.73474999999999 Q96.5 -41.42224999999999 98.25 -45.81174999999999 Q100.0 -50.20112499999999 100.0 -54.47999999999999 Q100.0 -61.97999999999999 95.0 -66.97999999999999 Q90.0 -71.97999999999999 82.5 -71.97999999999999 Q76.528875 -71.97999999999999 71.48075 -68.57137499999999 Q66.43275 -65.16274999999999 62.442375 -58.30687499999999 H57.557625 Q53.471125 -65.25887499999999 48.471125 -68.61937499999999 Q43.471125 -71.97999999999999 37.5 -71.97999999999999 Q30.096125 -71.97999999999999 25.048125 -66.97999999999999 Q20.0 -61.97999999999999 20.0 -54.47999999999999 Q20.0 -50.20112499999999 21.75 -45.81174999999999 Q23.5 -41.42224999999999 28.0 -35.73474999999999 Q32.5 -30.04724999999999 40.25 -22.35974999999999 Q48.0 -14.672249999999991 60.0 -3.7299999999999898 Z"/></g><g id="Ultralight-M" transform="matrix(1 0 0 1 506.415 1126)"><path d="M60.0 1.0200000000000102  57.25 -1.4799999999999898 Q45.125 -12.60499999999999 37.1875 -20.47999999999999 Q29.25 -28.35499999999999 24.6875 -34.29249999999999 Q20.125 -40.22999999999999 18.3125 -44.97999999999999 Q16.5 -49.72999999999999 16.5 -54.47999999999999 Q16.5 -63.35499999999999 22.5625 -69.41749999999999 Q28.625 -75.47999999999999 37.5 -75.47999999999999 Q44.125 -75.47999999999999 49.875 -71.91749999999999 Q55.625 -68.35499999999999 60.0 -61.47999999999999 Q64.375 -68.35499999999999 70.125 -71.91749999999999 Q75.875 -75.47999999999999 82.5 -75.47999999999999 Q91.375 -75.47999999999999 97.4375 -69.41749999999999 Q103.5 -63.35499999999999 103.5 -54.47999999999999 Q103.5 -49.72999999999999 101.6875 -44.97999999999999 Q99.875 -40.22999999999999 95.3125 -34.29249999999999 Q90.75 -28.35499999999999 82.875 -20.47999999999999 Q75.0 -12.60499999999999 62.75 -1.4799999999999898 L60.0 1.0200000000000102 Z M60.0 -3.7299999999999898 Q72.0 -14.60499999999999 79.75 -22.35499999999999 Q87.5 -30.10499999999999 92.0 -35.79249999999999 Q96.5 -41.47999999999999 98.25 -45.85499999999999 Q100.0 -50.22999999999999 100.0 -54.47999999999999 Q100.0 -61.97999999999999 95.0 -66.97999999999999 Q90.0 -71.97999999999999 82.5 -71.97999999999999 Q76.5 -71.97999999999999 71.4375 -68.54249999999999 Q66.375 -65.10499999999999 61.75 -57.72999999999999 H58.25 Q53.5 -65.22999999999999 48.5 -68.60499999999999 Q43.5 -71.97999999999999 37.5 -71.97999999999999 Q30.125 -71.97999999999999 25.0625 -66.97999999999999 Q20.0 -61.97999999999999 20.0 -54.47999999999999 Q20.0 -50.22999999999999 21.75 -45.85499999999999 Q23.5 -41.47999999999999 28.0 -35.79249999999999 Q32.5 -30.10499999999999 40.25 -22.41749999999999 Q48.0 -14.72999999999999 60.0 -3.7299999999999898 Z"/></g><g id="Bold-S" transform="matrix(1 0 0 1 2294.23 696)"><path d="M47.241375000000005 2.4447500000000133  40.04175 -4.064499999999988 Q29.784750000000003 -13.137999999999987 23.1275625 -19.696562499999988 Q16.470375 -26.255124999999985 12.722625 -31.383624999999988 Q8.974875 -36.51212499999999 7.495500000000001 -40.85162499999999 Q6.016125000000001 -45.191124999999985 6.016125000000001 -49.92512499999999 Q6.016125000000001 -60.17768687499999 12.992462999999999 -67.18223162499999 Q19.968899625000002 -74.18687499999999 30.17925 -74.18687499999999 Q34.906543500000005 -74.18687499999999 39.34802175 -72.51024999999998 Q43.789500000000004 -70.83362499999998 47.241375000000005 -67.579 Q50.69325 -70.83362499999998 55.13472825 -72.51024999999998 Q59.5762065 -74.18687499999999 64.3035 -74.18687499999999 Q74.59817475 -74.18687499999999 81.63102487500001 -67.18223162499999 Q88.663875 -60.17768687499999 88.663875 -49.92512499999999 Q88.663875 -45.28974999999999 87.283125 -41.04887499999999 Q85.902375 -36.807999999999986 82.1053125 -31.77812499999999 Q78.30825 -26.748249999999985 71.5524375 -20.041749999999986 Q64.796625 -13.335249999999988 54.243750000000006 -3.867249999999988 L47.241375000000005 2.4447500000000133 Z M47.241375000000005 -13.137999999999987 Q56.21625 -21.323874999999987 61.9858125 -26.84687499999999 Q67.755375 -32.369874999999986 71.108625 -36.51212499999999 Q74.461875 -40.65437499999999 75.744 -43.77565899999999 Q77.02612500000001 -46.896844374999986 77.02612500000001 -49.92275799999999 Q77.02612500000001 -55.34949999999999 73.376506875 -58.94931249999999 Q69.72679012500001 -62.54912499999999 64.350938625 -62.54912499999999 Q61.246125 -62.54912499999999 58.4353125 -61.119062499999984 Q55.624500000000005 -59.68899999999999 53.454750000000004 -57.12474999999999 L50.002875 -53.081124999999986 H44.578500000000005 L41.126625000000004 -57.12474999999999 Q39.003623250000004 -59.68899999999999 36.021499125000005 -61.119062499999984 Q33.039375 -62.54912499999999 30.206174625000003 -62.54912499999999 Q24.925200375000003 -62.54912499999999 21.3388995 -58.94931249999999 Q17.7525 -55.34949999999999 17.7525 -49.92512499999999 Q17.7525 -46.79318949999999 18.979395 -43.712243124999986 Q20.20629 -40.63129674999998 23.466832500000002 -36.549898374999984 Q26.727375000000002 -32.46849999999999 32.447625 -26.94549999999999 Q38.167875 -21.422499999999985 47.241375000000005 -13.137999999999987 Z"/></g><g id="Semibold-S" transform="matrix(1 0 0 1 1998.1 696)"><path d="M47.284276875 0.47234862500001285  41.070803250000004 -5.136455124999987 Q30.985312125 -14.081348124999987 24.43533 -20.51120499999999 Q17.885347875 -26.941160499999988 14.1589995 -31.96245512499999 Q10.43274975 -36.98374974999999 8.974776375 -41.194642749999986 Q7.5168029999999995 -45.405535749999984 7.5168029999999995 -49.92512499999999 Q7.5168029999999995 -59.53642712499999 14.07576 -66.11126275 Q20.634618375000002 -72.68619699999999 30.222151875 -72.68619699999999 Q34.99520737500001 -72.68619699999999 39.478108125000006 -70.83806312499999 Q43.961008875 -68.98992924999999 47.284276875 -65.52089349999999 Q50.60744625 -68.98992924999999 55.09044562500001 -70.83806312499999 Q59.573346375 -72.68619699999999 64.346401875 -72.68619699999999 Q73.98147262500001 -72.68619699999999 80.5722855 -66.11126275 Q87.163197 -59.53642712499999 87.163197 -49.92512499999999 Q87.163197 -45.46125887499999 85.782447 -41.34899087499999 Q84.401697 -37.23682149999999 80.64743775 -32.29265162499998 Q76.89327712500001 -27.34858037499999 70.26607162500001 -20.79208899999999 Q63.63896475 -14.235696249999986 53.300401875 -4.939205124999987 L47.284276875 0.47234862500001285 Z M47.284276875 -12.49486637499999 Q56.344857 -20.68074137499999 62.178723000000005 -26.310946749999985 Q68.01268762500001 -31.941053499999988 71.430241125 -36.147705624999986 Q74.847794625 -40.35425912499999 76.1728215 -43.576337874999986 Q77.49774975000001 -46.798416624999994 77.49774975000001 -49.92374424999999 Q77.49774975000001 -55.52100887499999 73.719721875 -59.27092862499998 Q69.941694 -63.02074974999999 64.373227875 -63.02074974999999 Q61.117518000000004 -63.02074974999999 58.22090175 -61.59068724999999 Q55.324384125 -60.16062475 53.154634125 -57.596374749999995 L49.702759125 -53.55274974999999 H44.92151775 L41.469642750000006 -57.596374749999995 Q39.32632425 -60.16062475 36.290055 -61.59068724999999 Q33.25378575 -63.02074974999999 30.237340125000003 -63.02074974999999 Q24.722526000000002 -63.02074974999999 20.980299000000002 -59.27092862499998 Q17.237973375 -55.52100887499999 17.237973375 -49.92512499999999 Q17.237973375 -46.73983337499999 18.48883425 -43.604840499999995 Q19.73979375 -40.46984762499999 23.062075500000002 -36.31911587499999 Q26.38435725 -32.16838412499999 32.211812625 -26.516678499999983 Q38.03926800000001 -20.865071499999992 47.284276875 -12.49486637499999 Z"/></g><g id="Medium-S" transform="matrix(1 0 0 1 1701.85 696)"><path d="M47.31642862500001 -1.007124999999986  41.842741125 -5.940544749999987 Q31.885856999999998 -14.788883874999986 25.41625425 -21.12228549999999 Q18.946750125 -27.455785749999983 15.236477625000001 -32.396700999999986 Q11.526205125 -37.33761624999999 10.08440625 -41.45195537499999 Q8.64250875 -45.566294499999984 8.64250875 -49.92512499999999 Q8.64250875 -59.055432999999994 14.888331375000002 -65.30796212499999 Q21.134055375000003 -71.56049124999998 30.254303625000002 -71.56049124999998 Q35.061680625 -71.56049124999998 39.57564825 -69.58365174999999 Q44.089615875 -67.606910875 47.31642862500001 -63.977116374999994 Q50.543142749999994 -67.606910875 55.057110375 -69.58365174999999 Q59.571078 -71.56049124999998 64.378553625 -71.56049124999998 Q73.518921375 -71.56049124999998 79.77815700000001 -65.30796212499999 Q86.03749125 -59.055432999999994 86.03749125 -49.92512499999999 Q86.03749125 -45.58986587499999 84.65674125000001 -41.57415174999999 Q83.27599125 -37.55843762499999 79.553982375 -32.67857124999999 Q75.831874875 -27.798803499999984 69.30122325 -21.354941874999987 Q62.770571625 -14.911080249999987 52.592866125 -5.743294749999986 L47.31642862500001 -1.007124999999986 Z M47.31642862500001 -12.012392874999986 Q56.441410875 -20.198267874999985 62.3235045 -25.908852624999987 Q68.20559812500001 -31.61943737499999 71.67137925 -35.87431712499999 Q75.137259 -40.129098249999984 76.494437625 -43.426822374999986 Q77.85161625 -46.72464512499999 77.85161625 -49.92453324999999 Q77.85161625 -55.649615874999995 73.97723175 -59.51206674999999 Q70.10284725000001 -63.37461624999999 64.3898955 -63.37461624999999 Q61.020964125 -63.37461624999999 58.060143000000004 -61.94455374999998 Q55.09922325 -60.51449124999999 52.92947325 -57.95024124999999 L49.47759825 -53.906616249999985 H45.178830375000004 L41.726955375 -57.95024124999999 Q39.56835 -60.51449124999999 36.49144725 -61.94455374999998 Q33.4145445 -63.37461624999999 30.260714250000003 -63.37461624999999 Q24.57044625 -63.37461624999999 20.71125 -59.51206674999999 Q16.85205375 -55.649615874999995 16.85205375 -49.92512499999999 Q16.85205375 -46.69979162499999 18.120963 -43.524263874999995 Q19.38987225 -40.34873612499998 22.758409125 -36.145930374999985 Q26.127044625000003 -31.94322324999999 32.034879375 -26.195062374999992 Q37.942714125 -20.447000124999988 47.31642862500001 -12.012392874999986 Z"/></g><g id="Regular-S" transform="matrix(1 0 0 1 1405.73 696)"><path d="M47.34 -2.0919999999999863  42.408750000000005 -6.5301249999999875 Q32.54625 -15.307749999999988 26.135625 -21.57043749999999 Q19.725 -27.83312499999999 16.0265625 -32.71506249999999 Q12.328125 -37.59699999999999 10.8980625 -41.640624999999986 Q9.468 -45.68424999999999 9.468 -49.92512499999999 Q9.468 -58.702749999999995 15.484125 -64.71887499999998 Q21.50025 -70.73499999999999 30.277875 -70.73499999999999 Q35.1105 -70.73499999999999 39.64725 -68.66387499999999 Q44.184000000000005 -66.59275 47.34 -62.844999999999985 Q50.496 -66.59275 55.03275 -68.66387499999999 Q59.569500000000005 -70.73499999999999 64.402125 -70.73499999999999 Q73.17975 -70.73499999999999 79.195875 -64.71887499999998 Q85.212 -58.702749999999995 85.212 -49.92512499999999 Q85.212 -45.68424999999999 83.83125 -41.73924999999999 Q82.4505 -37.79424999999999 78.75206250000001 -32.96162499999999 Q75.053625 -28.12899999999999 68.5936875 -21.767687499999987 Q62.133750000000006 -15.406374999999986 52.074000000000005 -6.332874999999987 L47.34 -2.0919999999999863 Z M47.34 -11.658624999999986 Q56.512125000000005 -19.84449999999999 62.429625 -25.61406249999999 Q68.347125 -31.383624999999988 71.8483125 -35.67381249999999 Q75.3495 -39.96399999999999 76.73025 -43.31724999999999 Q78.111 -46.67049999999999 78.111 -49.92512499999999 Q78.111 -55.743999999999986 74.166 -59.68899999999999 Q70.221 -63.633999999999986 64.402125 -63.633999999999986 Q60.950250000000004 -63.633999999999986 57.9421875 -62.203937499999995 Q54.934125 -60.77387499999999 52.764375 -58.20962499999999 L49.3125 -54.16599999999998 H45.3675 L41.915625 -58.20962499999999 Q39.745875000000005 -60.77387499999999 36.6391875 -62.203937499999995 Q33.5325 -63.633999999999986 30.277875 -63.633999999999986 Q24.459 -63.633999999999986 20.514 -59.68899999999999 Q16.569 -55.743999999999986 16.569 -49.92512499999999 Q16.569 -46.67049999999999 17.851125 -43.46518749999999 Q19.13325 -40.25987499999999 22.535812500000002 -36.01899999999999 Q25.938375 -31.77812499999999 31.9051875 -25.95924999999999 Q37.872 -20.140374999999985 47.34 -11.658624999999986 Z"/></g><g id="Light-S" transform="matrix(1 0 0 1 1109.75 696)"><path d="M47.34 -4.7474781249999864  43.774410375 -7.971627999999988 Q34.063694250000005 -16.673410374999985 27.747847874999998 -22.822284624999988 Q21.432100125 -28.971158874999986 17.828539875 -33.663440499999986 Q14.224881 -38.355722124999986 12.832789125 -42.171720624999985 Q11.440598625000002 -45.98771912499999 11.440598625000002 -49.92512499999999 Q11.440598625000002 -57.830214624999996 16.906692000000003 -63.296307999999996 Q22.372785375000003 -68.762401375 30.277875 -68.762401375 Q35.148470625 -68.762401375 39.64725 -66.44461525 Q44.146029375000005 -64.12692775 47.34 -59.810210125 Q50.533970625 -64.12692775 55.03275 -66.44461525 Q59.531529375000005 -68.762401375 64.402125 -68.762401375 Q72.307214625 -68.762401375 77.773308 -63.296307999999996 Q83.239401375 -57.830214624999996 83.239401375 -49.92512499999999 Q83.239401375 -45.98771912499999 81.896523375 -42.27034562499999 Q80.55374400000001 -38.55297212499999 76.950085125 -33.91000299999999 Q73.346524875 -29.26703387499999 67.00040062500001 -23.019534624999984 Q60.654276375 -16.772035374999987 50.708339625 -7.774377999999988 L47.34 -4.7474781249999864 Z M47.34 -11.658624999999986 Q56.512125000000005 -19.882470624999986 62.429625 -25.670969124999985 Q68.347125 -31.459467624999988 71.8483125 -35.74965512499999 Q75.3495 -40.03984262499999 76.73025 -43.37415662499999 Q78.111 -46.70847062499999 78.111 -49.92512499999999 Q78.111 -55.743999999999986 74.166 -59.68899999999999 Q70.221 -63.633999999999986 64.402125 -63.633999999999986 Q60.912279375000004 -63.633999999999986 57.885280875 -62.165966874999995 Q54.858282375 -60.69803237499998 51.853967625 -57.450902875 L48.402092625 -53.40727787499999 H46.277907375 L42.826032375000004 -57.450902875 Q39.783845625 -60.73590437499999 36.677158125 -62.185001499999984 Q33.570470625 -63.633999999999986 30.277875 -63.633999999999986 Q24.496970625 -63.633999999999986 20.532936000000003 -59.68899999999999 Q16.569 -55.743999999999986 16.569 -49.92512499999999 Q16.569 -46.70847062499999 17.851125 -43.52209412499999 Q19.13325 -40.33571762499999 22.535812500000002 -36.09484262499999 Q25.938375 -31.85396762499999 31.9051875 -26.03509262499999 Q37.872 -20.21621762499999 47.34 -11.658624999999986 Z"/></g><g id="Thin-S" transform="matrix(1 0 0 1 814.015 696)"><path d="M47.34 -7.402561749999986  45.1398735 -9.413032374999986 Q35.580842625 -18.038873499999987 29.359873500000003 -24.073934499999993 Q23.138904375000003 -30.10909412499999 19.63012275 -34.611719874999984 Q16.121341125 -39.114345624999984 14.767219875 -42.70271762499999 Q13.413 -46.29118824999999 13.413 -49.92512499999999 Q13.413 -56.95787649999998 18.32906175 -61.873938249999995 Q23.245123500000002 -66.78999999999999 30.277875 -66.78999999999999 Q35.186342625 -66.78999999999999 39.64725 -64.22574999999999 Q44.108157375000005 -61.66149999999999 47.34 -56.775814749999995 Q50.571842625 -61.66149999999999 55.03275 -64.22574999999999 Q59.493657375000005 -66.78999999999999 64.402125 -66.78999999999999 Q71.4348765 -66.78999999999999 76.35093825 -61.873938249999995 Q81.26700000000001 -56.95787649999998 81.26700000000001 -49.92512499999999 Q81.26700000000001 -46.29118824999999 79.96209262500001 -42.80134262499999 Q78.657283875 -39.31159562499999 75.14850225 -34.85828237499999 Q71.639720625 -30.404969124999987 65.407409625 -24.27118449999999 Q59.175000000000004 -18.13749849999999 49.3428765 -9.215782374999986 L47.34 -7.402561749999986 Z M47.34 -11.658624999999986 Q56.512125000000005 -19.92034262499999 62.429625 -25.72787574999999 Q68.347125 -31.535310249999988 71.8483125 -35.82549774999999 Q75.3495 -40.11568524999999 76.73025 -43.43106324999999 Q78.111 -46.74634262499999 78.111 -49.92512499999999 Q78.111 -55.743999999999986 74.166 -59.68899999999999 Q70.221 -63.633999999999986 64.402125 -63.633999999999986 Q60.874407375000004 -63.633999999999986 57.82837425 -62.12809487499999 Q54.78243975 -60.62218974999999 50.943658875000004 -56.692279374999984 L47.491783875 -52.64865437499999 H47.188216125000004 L43.736341125 -56.692279374999984 Q39.821717625000005 -60.69803237499998 36.715030125000006 -62.165966874999995 Q33.608342625 -63.633999999999986 30.277875 -63.633999999999986 Q24.534842625000003 -63.633999999999986 20.551970625 -59.68899999999999 Q16.569 -55.743999999999986 16.569 -49.92512499999999 Q16.569 -46.74634262499999 17.851125 -43.57900074999999 Q19.13325 -40.41156024999999 22.535812500000002 -36.17068524999999 Q25.938375 -31.92981024999999 31.9051875 -26.11093524999999 Q37.872 -20.29206024999999 47.34 -11.658624999999986 Z"/></g><g id="Ultralight-S" transform="matrix(1 0 0 1 517.792 696)"><path d="M47.34 -8.995749999999987  45.959250000000004 -10.277874999999987 Q36.49125 -18.858249999999988 30.3271875 -24.825062499999987 Q24.163125 -30.79187499999999 20.71125 -35.18068749999999 Q17.259375000000002 -39.56949999999999 15.9279375 -43.02137499999999 Q14.5965 -46.473249999999986 14.5965 -49.92512499999999 Q14.5965 -56.43437499999999 19.1825625 -61.020437499999986 Q23.768625 -65.60649999999998 30.277875 -65.60649999999998 Q35.209125 -65.60649999999998 39.64725 -62.894312499999984 Q44.085375 -60.182124999999985 47.34 -54.954999999999984 Q50.594625 -60.182124999999985 55.03275 -62.894312499999984 Q59.470875 -65.60649999999998 64.402125 -65.60649999999998 Q70.911375 -65.60649999999998 75.4974375 -61.020437499999986 Q80.0835 -56.43437499999999 80.0835 -49.92512499999999 Q80.0835 -46.473249999999986 78.80137500000001 -43.11999999999999 Q77.51925 -39.76674999999999 74.067375 -35.42724999999999 Q70.6155 -31.087749999999986 64.4514375 -25.02231249999999 Q58.287375000000004 -18.95687499999999 48.523500000000006 -10.080624999999987 L47.34 -8.995749999999987 Z M47.34 -11.658624999999986 Q56.512125000000005 -19.943124999999988 62.429625 -25.761999999999986 Q68.347125 -31.580874999999992 71.8483125 -35.87106249999999 Q75.3495 -40.16124999999999 76.73025 -43.46518749999999 Q78.111 -46.76912499999999 78.111 -49.92512499999999 Q78.111 -55.743999999999986 74.166 -59.68899999999999 Q70.221 -63.633999999999986 64.402125 -63.633999999999986 Q60.851625000000006 -63.633999999999986 57.794250000000005 -62.1053125 Q54.736875000000005 -60.57662499999999 50.397375000000004 -56.23712499999999 L46.9455 -52.193499999999986 H47.734500000000004 L44.282625 -56.23712499999999 Q39.844500000000004 -60.67524999999999 36.737812500000004 -62.154624999999996 Q33.631125000000004 -63.633999999999986 30.277875 -63.633999999999986 Q24.557625 -63.633999999999986 20.563312500000002 -59.68899999999999 Q16.569 -55.743999999999986 16.569 -49.92512499999999 Q16.569 -46.76912499999999 17.851125 -43.61312499999999 Q19.13325 -40.45712499999999 22.535812500000002 -36.21624999999999 Q25.938375 -31.975374999999985 31.9051875 -26.156499999999987 Q37.872 -20.33762499999999 47.34 -11.658624999999986 Z"/></g></g></svg>